HIERARCHY
ROOT Hips
{
  OFFSET 355.919 86.4747 225.794
  CHANNELS 6 Xposition Yposition Zposition Zrotation Xrotation Yrotation
  JOINT RightUpLeg
  {
    OFFSET -9.27002 -1.5459 0.01036
    CHANNELS 6 Xposition Yposition Zposition Zrotation Xrotation Yrotation
    JOINT RightLeg
    {
      OFFSET 0.0140593 -41.8711 0.0133698
      CHANNELS 6 Xposition Yposition Zposition Zrotation Xrotation Yrotation
      JOINT RightFoot
      {
        OFFSET -0.635566 -43.1404 -0.638083
        CHANNELS 6 Xposition Yposition Zposition Zrotation Xrotation Yrotation
        End Site
        {
          OFFSET 0 -7.69 17.5
        }
      }
    }
  }
  JOINT LeftUpLeg
  {
    OFFSET 9.32012 -1.63326 -0.0611393
    CHANNELS 6 Xposition Yposition Zposition Zrotation Xrotation Yrotation
    JOINT LeftLeg
    {
      OFFSET 0.136006 -41.8606 -0.0682192
      CHANNELS 6 Xposition Yposition Zposition Zrotation Xrotation Yrotation
      JOINT LeftFoot
      {
        OFFSET 0.555276 -40.3269 1.11688
        CHANNELS 6 Xposition Yposition Zposition Zrotation Xrotation Yrotation
        End Site
        {
          OFFSET 0 -7.69 17.5
        }
      }
    }
  }
  JOINT Spine
  {
    OFFSET 0.0429494 14.3014 0.0623428
    CHANNELS 6 Xposition Yposition Zposition Zrotation Xrotation Yrotation
    JOINT Spine1
    {
      OFFSET 0.0339905 9.7145 0.0185974
      CHANNELS 6 Xposition Yposition Zposition Zrotation Xrotation Yrotation
      JOINT Spine2
      {
        OFFSET 0.0702987 10.1151 0.00119849
        CHANNELS 6 Xposition Yposition Zposition Zrotation Xrotation Yrotation
        JOINT Spine3
        {
          OFFSET 0.0549776 9.72171 0.0130783
          CHANNELS 6 Xposition Yposition Zposition Zrotation Xrotation Yrotation
          JOINT Neck
          {
            OFFSET 0.180558 10.3826 0.0585802
            CHANNELS 6 Xposition Yposition Zposition Zrotation Xrotation Yrotation
            JOINT Head
            {
              OFFSET 0.132064 9.47087 0.0302784
              CHANNELS 6 Xposition Yposition Zposition Zrotation Xrotation Yrotation
              End Site
              {
                OFFSET 0 15.95 0
              }
            }
          }
          JOINT RightShoulder
          {
            OFFSET -3.15694 6.89408 0.00348883
            CHANNELS 6 Xposition Yposition Zposition Zrotation Xrotation Yrotation
            JOINT RightArm
            {
              OFFSET -12.7416 -0.0031918 0.045926
              CHANNELS 6 Xposition Yposition Zposition Zrotation Xrotation Yrotation
              JOINT RightForeArm
              {
                OFFSET -26.5078 -0.077338 0.00400063
                CHANNELS 6 Xposition Yposition Zposition Zrotation Xrotation Yrotation
                JOINT RightHand
                {
                  OFFSET -26.0338 -0.025514 0.155859
                  CHANNELS 6 Xposition Yposition Zposition Zrotation Xrotation Yrotation
                  JOINT RightHandThumb1
                  {
                    OFFSET -2.48905 0.190105 3.12053
                    CHANNELS 6 Xposition Yposition Zposition Zrotation Xrotation Yrotation
                    JOINT RightHandThumb2
                    {
                      OFFSET -3.68274 0 0
                      CHANNELS 6 Xposition Yposition Zposition Zrotation Xrotation Yrotation
                      JOINT RightHandThumb3
                      {
                        OFFSET -2.55832 0 0
                        CHANNELS 6 Xposition Yposition Zposition Zrotation Xrotation Yrotation
                        End Site
                        {
                          OFFSET -2.194 0 0
                        }
                      }
                    }
                  }
                  JOINT RightInHandIndex
                  {
                    OFFSET -3.22368 0.508421 1.97842
                    CHANNELS 6 Xposition Yposition Zposition Zrotation Xrotation Yrotation
                    JOINT RightHandIndex1
                    {
                      OFFSET -5.21684 -0.091368 0.999158
                      CHANNELS 6 Xposition Yposition Zposition Zrotation Xrotation Yrotation
                      JOINT RightHandIndex2
                      {
                        OFFSET -3.61937 0 0
                        CHANNELS 6 Xposition Yposition Zposition Zrotation Xrotation Yrotation
                        JOINT RightHandIndex3
                        {
                          OFFSET -2.0521 0 0
                          CHANNELS 6 Xposition Yposition Zposition Zrotation Xrotation Yrotation
                          End Site
                          {
                            OFFSET -1.805 0 0
                          }
                        }
                      }
                    }
                  }
                  JOINT RightInHandMiddle
                  {
                    OFFSET -3.38211 0.517263 0.756737
                    CHANNELS 6 Xposition Yposition Zposition Zrotation Xrotation Yrotation
                    JOINT RightHandMiddle1
                    {
                      OFFSET -5.17411 -0.084 0.313895
                      CHANNELS 6 Xposition Yposition Zposition Zrotation Xrotation Yrotation
                      JOINT RightHandMiddle2
                      {
                        OFFSET -3.94947 0 0
                        CHANNELS 6 Xposition Yposition Zposition Zrotation Xrotation Yrotation
                        JOINT RightHandMiddle3
                        {
                          OFFSET -2.47579 0 0
                          CHANNELS 6 Xposition Yposition Zposition Zrotation Xrotation Yrotation
                          End Site
                          {
                            OFFSET -1.975 0 0
                          }
                        }
                      }
                    }
                  }
                  JOINT RightInHandRing
                  {
                    OFFSET -3.36516 0.537895 -0.128947
                    CHANNELS 6 Xposition Yposition Zposition Zrotation Xrotation Yrotation
                    JOINT RightHandRing1
                    {
                      OFFSET -4.63474 -0.022105 -0.478947
                      CHANNELS 6 Xposition Yposition Zposition Zrotation Xrotation Yrotation
                      JOINT RightHandRing2
                      {
                        OFFSET -3.44238 0 0
                        CHANNELS 6 Xposition Yposition Zposition Zrotation Xrotation Yrotation
                        JOINT RightHandRing3
                        {
                          OFFSET -2.3881 0 0
                          CHANNELS 6 Xposition Yposition Zposition Zrotation Xrotation Yrotation
                          End Site
                          {
                            OFFSET -1.857 0 0
                          }
                        }
                      }
                    }
                  }
                  JOINT RightInHandPinky
                  {
                    OFFSET -3.16105 0.469368 -1.20179
                    CHANNELS 6 Xposition Yposition Zposition Zrotation Xrotation Yrotation
                    JOINT RightHandPinky1
                    {
                      OFFSET -4.14105 -0.022105 -1.09053
                      CHANNELS 6 Xposition Yposition Zposition Zrotation Xrotation Yrotation
                      JOINT RightHandPinky2
                      {
                        OFFSET -2.75653 0 0
                        CHANNELS 6 Xposition Yposition Zposition Zrotation Xrotation Yrotation
                        JOINT RightHandPinky3
                        {
                          OFFSET -1.74189 0 0
                          CHANNELS 6 Xposition Yposition Zposition Zrotation Xrotation Yrotation
                          End Site
                          {
                            OFFSET -1.645 0 0
                          }
                        }
                      }
                    }
                  }
                }
              }
            }
          }
          JOINT LeftShoulder
          {
            OFFSET 3.22505 6.94333 0.022328
            CHANNELS 6 Xposition Yposition Zposition Zrotation Xrotation Yrotation
            JOINT LeftArm
            {
              OFFSET 12.8444 -0.0213048 -0.00476292
              CHANNELS 6 Xposition Yposition Zposition Zrotation Xrotation Yrotation
              JOINT LeftForeArm
              {
                OFFSET 26.5039 -0.0600356 -0.0922837
                CHANNELS 6 Xposition Yposition Zposition Zrotation Xrotation Yrotation
                JOINT LeftHand
                {
                  OFFSET 25.9877 -0.0131707 -0.0189166
                  CHANNELS 6 Xposition Yposition Zposition Zrotation Xrotation Yrotation
                  JOINT LeftHandThumb1
                  {
                    OFFSET 2.48905 0.190105 3.12053
                    CHANNELS 6 Xposition Yposition Zposition Zrotation Xrotation Yrotation
                    JOINT LeftHandThumb2
                    {
                      OFFSET 3.68274 0 0
                      CHANNELS 6 Xposition Yposition Zposition Zrotation Xrotation Yrotation
                      JOINT LeftHandThumb3
                      {
                        OFFSET 2.55832 0 0
                        CHANNELS 6 Xposition Yposition Zposition Zrotation Xrotation Yrotation
                        End Site
                        {
                          OFFSET 2.194 0 0
                        }
                      }
                    }
                  }
                  JOINT LeftInHandIndex
                  {
                    OFFSET 3.22368 0.508421 1.97842
                    CHANNELS 6 Xposition Yposition Zposition Zrotation Xrotation Yrotation
                    JOINT LeftHandIndex1
                    {
                      OFFSET 5.21684 -0.091368 0.999158
                      CHANNELS 6 Xposition Yposition Zposition Zrotation Xrotation Yrotation
                      JOINT LeftHandIndex2
                      {
                        OFFSET 3.61937 0 0
                        CHANNELS 6 Xposition Yposition Zposition Zrotation Xrotation Yrotation
                        JOINT LeftHandIndex3
                        {
                          OFFSET 2.0521 0 0
                          CHANNELS 6 Xposition Yposition Zposition Zrotation Xrotation Yrotation
                          End Site
                          {
                            OFFSET 1.805 0 0
                          }
                        }
                      }
                    }
                  }
                  JOINT LeftInHandMiddle
                  {
                    OFFSET 3.38211 0.517263 0.756737
                    CHANNELS 6 Xposition Yposition Zposition Zrotation Xrotation Yrotation
                    JOINT LeftHandMiddle1
                    {
                      OFFSET 5.17411 -0.084 0.313895
                      CHANNELS 6 Xposition Yposition Zposition Zrotation Xrotation Yrotation
                      JOINT LeftHandMiddle2
                      {
                        OFFSET 3.94947 0 0
                        CHANNELS 6 Xposition Yposition Zposition Zrotation Xrotation Yrotation
                        JOINT LeftHandMiddle3
                        {
                          OFFSET 2.47579 0 0
                          CHANNELS 6 Xposition Yposition Zposition Zrotation Xrotation Yrotation
                          End Site
                          {
                            OFFSET 1.975 0 0
                          }
                        }
                      }
                    }
                  }
                  JOINT LeftInHandRing
                  {
                    OFFSET 3.36516 0.537895 -0.128947
                    CHANNELS 6 Xposition Yposition Zposition Zrotation Xrotation Yrotation
                    JOINT LeftHandRing1
                    {
                      OFFSET 4.63474 -0.022105 -0.478947
                      CHANNELS 6 Xposition Yposition Zposition Zrotation Xrotation Yrotation
                      JOINT LeftHandRing2
                      {
                        OFFSET 3.44238 0 0
                        CHANNELS 6 Xposition Yposition Zposition Zrotation Xrotation Yrotation
                        JOINT LeftHandRing3
                        {
                          OFFSET 2.3881 0 0
                          CHANNELS 6 Xposition Yposition Zposition Zrotation Xrotation Yrotation
                          End Site
                          {
                            OFFSET 1.857 0 0
                          }
                        }
                      }
                    }
                  }
                  JOINT LeftInHandPinky
                  {
                    OFFSET 3.16105 0.469368 -1.20179
                    CHANNELS 6 Xposition Yposition Zposition Zrotation Xrotation Yrotation
                    JOINT LeftHandPinky1
                    {
                      OFFSET 4.14105 -0.022105 -1.09053
                      CHANNELS 6 Xposition Yposition Zposition Zrotation Xrotation Yrotation
                      JOINT LeftHandPinky2
                      {
                        OFFSET 2.75653 0 0
                        CHANNELS 6 Xposition Yposition Zposition Zrotation Xrotation Yrotation
                        JOINT LeftHandPinky3
                        {
                          OFFSET 1.74189 0 0
                          CHANNELS 6 Xposition Yposition Zposition Zrotation Xrotation Yrotation
                          End Site
                          {
                            OFFSET 1.645 0 0
                          }
                        }
                      }
                    }
                  }
                }
              }
            }
          }
        }
      }
    }
  }
}
MOTION
Frames:	3
Frame Time:	0.00833333
341.38 86.7123 211.318 31.8406 11.2629 -112.993 -9.29568 -1.61446 -0.119461 37.5878 -46.3287 27.8891 -0.0760379 -41.8562 0.160599 -0.78309 21.8122 -10.2762 1.53976 -40.9987 0.959754 6.52341 1.02997 36.6923 9.18237 -1.59971 0.0889151 46.962 -16.4498 16.7202 -0.0481739 -41.9134 -0.045598 -6.7674 36.4183 -0.531295 -0.0534698 -42.5544 0.565949 6.94011 -11.0705 22.5497 0.00425873 14.3022 -0.0406127 -3.64749 -2.97173 -9.39857 -0.0290823 9.72087 0.0259868 -0.866792 -0.810954 -2.31051 -0.144944 10.1199 0.0992116 -1.45169 -1.3869 -3.78871 -0.116993 9.72142 0.0572642 -0.537186 -0.217309 2.58777 -0.130956 10.3836 0.0855597 -1.47348 -2.73271 28.5544 -0.0742332 9.45537 -0.000104375 -9.48347 5.18982 31.5454 -3.28818 6.91518 0.195572 9.39104 4.20486 -4.8055 -12.8255 0.0141605 0.137421 59.6252 -42.2073 9.53869 -26.4683 -0.175545 0.0584661 26.5658 -11.2181 120.452 -25.9966 -0.234464 -0.0692792 12.3791 -31.8196 7.95634 -2.48905 0.190105 3.12053 28.184 10.7294 19.1592 -3.68274 -2.84217e-14 -5.68434e-14 -4.77679e-15 9.54166e-15 -10 -2.55832 0 0 -3.38673e-15 -3.18055e-15 -10 -3.22368 0.508421 1.97842 -7.95139e-15 -3.18055e-15 -1.59028e-15 -5.21684 -0.091368 0.999158 19.9818 0.871897 2.3964 -3.61937 5.68434e-14 0 24 1.90833e-14 -1.59028e-15 -2.0521 4.26326e-14 0 20 0 -0 -3.38211 0.517263 0.756737 -7.95139e-15 -3.18055e-15 -1.59028e-15 -5.17411 -0.084 0.313895 20 -9.54166e-15 -7.95139e-15 -3.94947 -2.84217e-14 0 24 9.54166e-15 4.77083e-15 -2.47579 -2.84217e-14 -5.68434e-14 20 -3.18055e-15 -6.36111e-15 -3.36516 0.537895 -0.128947 -7.95139e-15 -3.18055e-15 -1.59028e-15 -4.63474 -0.022105 -0.478947 19.9748 -1.02565 -2.81938 -3.44238 2.84217e-14 -5.68434e-14 24 -9.54166e-15 -4.77083e-15 -2.3881 -1.42109e-14 -5.68434e-14 20 3.18055e-15 6.36111e-15 -3.16105 0.469368 -1.20179 -7.95139e-15 -3.18055e-15 -1.59028e-15 -4.14105 -0.022105 -1.09053 19.7815 -3.00948 -8.30515 -2.75653 -2.84217e-14 0 24 -3.18055e-15 9.54166e-15 -1.74189 0 0 20 3.18055e-15 -6.36111e-15 3.06793 6.93799 0.0537042 7.47531 -14.8747 -49.5064 12.6443 0.11259 -0.0036685 -14.4001 34.9776 -110.176 26.4681 -0.0245544 0.254308 26.5197 -8.59896 -24.6181 25.9621 -0.0295583 -0.00100296 -41.1164 -10.4587 -11.2062 2.48905 0.190105 3.12053 -28.184 10.7294 -19.1592 3.68274 -1.42109e-14 -2.84217e-14 -2.98303e-15 3.18055e-15 10 2.55832 0 0 -1.12164e-15 6.36111e-15 10 3.22368 0.508421 1.97842 -1.59028e-15 -6.36111e-15 3.18055e-15 5.21684 -0.091368 0.999158 -19.9818 0.871897 -2.3964 3.61937 1.42109e-14 0 -24 6.36111e-15 3.97569e-15 2.0521 1.42109e-14 0 -20 6.36111e-15 3.18055e-15 3.38211 0.517263 0.756737 -1.59028e-15 -6.36111e-15 3.18055e-15 5.17411 -0.084 0.313895 -20 0 3.18055e-15 3.94947 -2.84217e-14 0 -24 0 -5.56597e-15 2.47579 0 -5.68434e-14 -20 -6.36111e-15 1.59028e-15 3.36516 0.537895 -0.128947 -1.59028e-15 -6.36111e-15 3.18055e-15 4.63474 -0.022105 -0.478947 -19.9748 -1.02565 2.81938 3.44238 0 0 -24 3.18055e-15 3.18055e-15 2.3881 0 0 -20 6.36111e-15 1.27222e-14 3.16105 0.469368 -1.20179 -1.59028e-15 -6.36111e-15 3.18055e-15 4.14105 -0.022105 -1.09053 -19.7815 -3.00948 8.30515 2.75653 1.42109e-14 -5.68434e-14 -24 0 1.59028e-15 1.74189 0 -5.68434e-14 -20 -9.54166e-15 8.74653e-15 
341.306 86.7567 211.657 31.9194 11.6756 -112.37 -9.2969 -1.60925 -0.117556 37.2041 -46.7052 27.435 -0.0855288 -41.8562 0.161056 -0.581271 21.9331 -10.4678 1.45887 -41.0506 0.920959 6.4365 0.970371 36.386 9.18913 -1.59278 0.0926004 47.0305 -17.3592 16.8626 -0.0377636 -41.9126 -0.0489139 -6.14912 36.7658 -1.04392 -0.0474835 -42.5046 0.532385 7.32554 -10.6607 21.9527 0.0286614 14.3023 -0.0517174 -3.22454 -2.57481 -9.34998 0.0127376 9.72085 0.0157129 -0.771446 -0.916186 -2.25514 -0.0967542 10.12 0.0747504 -1.29349 -1.26965 -3.77012 -0.0602007 9.72142 0.0245046 -0.554028 -0.220902 2.57234 -0.0766311 10.3837 0.0557373 -1.5355 -2.75536 27.7936 -0.0494344 9.45991 0.0162345 -9.82417 5.19643 31.8016 -3.26281 6.91603 0.173421 9.1049 3.96827 -4.71951 -12.8236 0.0134089 0.132585 60.3552 -41.2477 9.99421 -26.4699 -0.170948 0.0616863 25.8634 -11.508 119.671 -26.0026 -0.227949 -0.0687514 12.449 -32.1539 8.59269 -2.48905 0.190105 3.12053 28.184 10.7294 19.1592 -3.68274 -5.68434e-14 0 -4.28361e-15 3.18055e-15 -10 -2.55832 2.84217e-14 0 6.70583e-15 -3.18055e-15 -10 -3.22368 0.508421 1.97842 1.59028e-15 0 -0 -5.21684 -0.091368 0.999158 19.9818 0.871897 2.3964 -3.61937 0 -5.68434e-14 24 -3.18055e-15 -3.18055e-15 -2.0521 0 5.68434e-14 20 3.18055e-15 -3.18055e-15 -3.38211 0.517263 0.756737 1.59028e-15 0 -0 -5.17411 -0.084 0.313895 20 0 -5.06901e-15 -3.94947 2.84217e-14 0 24 -3.18055e-15 -6.36111e-15 -2.47579 -1.42109e-14 0 20 -3.18055e-15 9.54166e-15 -3.36516 0.537895 -0.128947 1.59028e-15 0 -0 -4.63474 -0.022105 -0.478947 19.9748 -1.02565 -2.81938 -3.44238 -2.84217e-14 0 24 9.54166e-15 -1.43125e-14 -2.3881 0 0 20 -9.54166e-15 -3.18055e-15 -3.16105 0.469368 -1.20179 1.59028e-15 0 -0 -4.14105 -0.022105 -1.09053 19.7815 -3.00948 -8.30515 -2.75653 0 5.68434e-14 24 6.36111e-15 -6.36111e-15 -1.74189 1.42109e-14 -5.68434e-14 20 3.18055e-15 -9.54166e-15 3.09823 6.9378 0.0318262 7.40668 -14.9684 -49.1533 12.65 0.108325 -0.00727058 -14.7115 35.1822 -109.878 26.4684 -0.0293945 0.245801 26.3597 -8.52971 -24.1539 25.9612 -0.0304963 -0.00494802 -41.1408 -10.2752 -11.1936 2.48905 0.190105 3.12053 -28.184 10.7294 -19.1592 3.68274 2.84217e-14 0 -5.71948e-15 9.54166e-15 10 2.55832 2.84217e-14 -5.68434e-14 -3.85808e-15 1.27222e-14 10 3.22368 0.508421 1.97842 1.76556e-31 -3.18055e-15 3.18055e-15 5.21684 -0.091368 0.999158 -19.9818 0.871897 -2.3964 3.61937 1.42109e-14 -5.68434e-14 -24 -9.54166e-15 -7.95139e-16 2.0521 -1.42109e-14 0 -20 -3.18055e-15 -2.38542e-15 3.38211 0.517263 0.756737 1.76556e-31 -3.18055e-15 3.18055e-15 5.17411 -0.084 0.313895 -20 -3.18055e-15 1.27222e-14 3.94947 2.84217e-14 -5.68434e-14 -24 -3.18055e-15 2.38542e-15 2.47579 2.84217e-14 0 -20 0 -5.56597e-15 3.36516 0.537895 -0.128947 1.76556e-31 -3.18055e-15 3.18055e-15 4.63474 -0.022105 -0.478947 -19.9748 -1.02565 2.81938 3.44238 1.42109e-14 0 -24 -9.54166e-15 -7.95139e-16 2.3881 0 0 -20 -6.36111e-15 -2.38542e-15 3.16105 0.469368 -1.20179 1.76556e-31 -3.18055e-15 3.18055e-15 4.14105 -0.022105 -1.09053 -19.7815 -3.00948 8.30515 2.75653 -7.10543e-15 0 -24 -3.18055e-15 1.59028e-15 1.74189 -2.84217e-14 0 -20 -3.18055e-15 3.97569e-15 
341.244 86.7962 211.997 31.9727 12.1014 -111.734 -9.29818 -1.60469 -0.115542 36.802 -47.0654 26.9647 -0.0979399 -41.8562 0.162425 -0.383731 22.0561 -10.6541 1.37876 -41.0984 0.887507 6.36274 0.904685 36.0558 9.19823 -1.59096 0.0926995 47.131 -18.227 17.0231 -0.0293827 -41.9117 -0.0576329 -5.55817 37.0843 -1.5632 -0.0460451 -42.4528 0.500861 7.41526 -10.4933 21.4098 0.0429229 14.3025 -0.0533441 -2.95151 -2.20948 -9.50429 0.0270717 9.72082 0.0205797 -0.713056 -1.08611 -2.23482 -0.0827799 10.12 0.0812611 -1.19766 -1.19363 -3.82277 -0.0426671 9.72141 0.0261276 -0.558149 -0.217764 2.56556 -0.0607118 10.3839 0.057971 -1.55068 -2.69836 27.3664 -0.0461149 9.4601 0.0233689 -9.91927 5.21875 31.9709 -3.25339 6.90929 0.0220756 8.88226 4.10394 -3.12969 -12.8217 -0.00533088 -0.0202319 60.9255 -41.3095 9.93782 -26.4715 -0.155105 0.0563898 25.2246 -11.6693 118.78 -26.0081 -0.214915 -0.0598754 12.3888 -32.2818 9.28819 -2.48905 0.190105 3.12053 28.184 10.7294 19.1592 -3.68274 2.84217e-14 5.68434e-14 7.51323e-15 -3.18055e-15 -10 -2.55832 0 0 3.38673e-15 3.18055e-15 -10 -3.22368 0.508421 1.97842 3.18055e-15 0 -3.18055e-15 -5.21684 -0.091368 0.999158 19.9818 0.871897 2.3964 -3.61937 -2.84217e-14 5.68434e-14 24 9.54166e-15 3.18055e-15 -2.0521 0 -5.68434e-14 20 3.18055e-15 3.18055e-15 -3.38211 0.517263 0.756737 3.18055e-15 0 -3.18055e-15 -5.17411 -0.084 0.313895 20 -3.18055e-15 2.98177e-16 -3.94947 0 0 24 -3.18055e-15 -0 -2.47579 0 5.68434e-14 20 6.36111e-15 -0 -3.36516 0.537895 -0.128947 3.18055e-15 0 -3.18055e-15 -4.63474 -0.022105 -0.478947 19.9748 -1.02565 -2.81938 -3.44238 0 0 24 -6.36111e-15 -6.36111e-15 -2.3881 2.84217e-14 0 20 6.36111e-15 -6.36111e-15 -3.16105 0.469368 -1.20179 3.18055e-15 0 -3.18055e-15 -4.14105 -0.022105 -1.09053 19.7815 -3.00948 -8.30515 -2.75653 0 -5.68434e-14 24 9.54166e-15 -4.77083e-15 -1.74189 -1.42109e-14 0 20 0 9.54166e-15 3.10947 6.9376 0.0291063 7.66683 -14.8317 -48.4572 12.6545 0.103353 -0.0129164 -15.0853 35.3749 -109.544 26.4688 -0.0354587 0.238333 26.164 -8.43087 -23.6633 25.9604 -0.0313385 -0.00754227 -41.1941 -10.079 -11.1786 2.48905 0.190105 3.12053 -28.184 10.7294 -19.1592 3.68274 0 -2.84217e-14 1.30058e-15 6.36111e-15 10 2.55832 0 0 6.2846e-16 -1.27222e-14 10 3.22368 0.508421 1.97842 0 0 -0 5.21684 -0.091368 0.999158 -19.9818 0.871897 -2.3964 3.61937 1.42109e-14 0 -24 6.36111e-15 -9.14409e-15 2.0521 0 0 -20 9.54166e-15 -6.36111e-15 3.38211 0.517263 0.756737 0 0 -0 5.17411 -0.084 0.313895 -20 -3.18055e-15 -6.36111e-15 3.94947 -7.10543e-15 0 -24 -3.18055e-15 -2.38542e-15 2.47579 -2.84217e-14 0 -20 3.18055e-15 4.77083e-15 3.36516 0.537895 -0.128947 0 0 -0 4.63474 -0.022105 -0.478947 -19.9748 -1.02565 2.81938 3.44238 7.10543e-15 5.68434e-14 -24 -9.54166e-15 -0 2.3881 0 0 -20 0 8.74653e-15 3.16105 0.469368 -1.20179 0 0 -0 4.14105 -0.022105 -1.09053 -19.7815 -3.00948 8.30515 2.75653 0 0 -24 0 -3.97569e-15 1.74189 0 0 -20 9.54166e-15 -8.74653e-15 
